<?xml version="1.0" encoding="utf-8"?>
<!-- Generator: Adobe Illustrator 26.3.1, SVG Export Plug-In . SVG Version: 6.00 Build 0)  -->
<svg version="1.1" id="Layer_1" xmlns="http://www.w3.org/2000/svg" xmlns:xlink="http://www.w3.org/1999/xlink" x="0px" y="0px"
	 width="300px" height="300px" viewBox="0 0 300 300" style="enable-background:new 0 0 300 300;" xml:space="preserve">
<style type="text/css">
	.st0{fill:#010101;}
</style>
<g>
	<path class="st0" d="M279.51,193.4c-0.06-4.72-5.11-8.84-14.61-11.92c-8.9-2.89-20.7-4.48-33.21-4.48h0
		c-0.73,0-1.44,0.02-2.17,0.03c0.57-0.77,1.15-1.54,1.76-2.29c2.93-3.65,6.81-5.22,11.39-5.26c0.29,0,0.64,0.15,0.86,0.35
		c2.06,1.79,4.33,3.07,7.12,3.21c1.52,0.08,3.05,0.15,4.57,0.16c2.2,0.01,4.41-0.17,6.54,0.57c1.13,0.39,2.23,0.84,3.36,1.22
		c0.8,0.27,1.62,0.31,2.14-0.49c0.56-0.87-0.06-1.46-0.62-2.06c-1.7-1.84-3.41-3.66-5.02-5.57c-1.45-1.74-3.19-2.92-5.42-3.33
		c-3.86-0.7-7.32,0.46-10.55,2.45c-0.91,0.56-1.74,0.9-2.84,0.9c-1.59,0.01-3.17,0.3-4.77,0.47c0.02-0.05,0.02-0.12,0.06-0.16
		c3.57-3.34,7.16-6.67,11.31-9.31c3.28-2.08,6.56-4.06,10.75-3.8c1.68,0.1,3.48-0.32,5.08-0.89c3.05-1.1,5.3-3.36,7.25-5.86
		c1.75-2.24,3.44-4.51,5.71-6.29c1.04-0.82,1.24-1.66,0.86-2.38c-0.38-0.72-1.14-0.96-2.46-0.48c-2.93,1.06-5.81,2.24-8.71,3.36
		c-0.85,0.33-1.71,0.8-2.59,0.87c-3.17,0.26-5.53,1.92-7.68,4.07c-1.23,1.23-2.06,2.67-2.36,4.36c-0.12,0.7-0.45,1.03-1.03,1.35
		c-2.07,1.12-4.16,2.21-6.15,3.47c-5.2,3.29-9.6,7.54-13.99,11.8c-0.19,0.19-0.39,0.37-0.58,0.56c2.54-7.06,2.58-14.52,4.13-21.9
		c0.43,0.59,0.72,1.02,1.04,1.42c0.71,0.88,1.3,1.93,2.18,2.56c1.5,1.08,2.97,2.09,3.97,3.71c0.45,0.74,1.41,0.81,1.89,0.19
		c1.38-1.78,2.32-3.76,1.49-6.03c-0.52-1.43-1.41-2.72-2.12-4.04c0.21,0.01,0.54,0.02,0.86,0.07c2.54,0.39,4.6-0.49,6.34-2.32
		c1.03-1.08,2.09-2.15,3.21-3.12c1.18-1.02,1.76-2.3,2-3.8c0.39-2.35,0.27-4.68-0.13-7.02c-0.53-3.1-1.9-5.47-5.12-6.09
		c-0.28-0.53-0.44-1.04-0.77-1.39c-0.6-0.65-1.29-1.21-1.95-1.8c-0.93-0.83-2.04-1.17-3.26-1.3c-1.44-0.14-2.69,0.36-3.94,0.98
		c-1.36,0.67-1.59,0.61-2.63-0.47c-0.76-0.79-1.66-1.24-2.75-1.26c-2.03-0.04-3.84,0.58-5.08,2.25c-0.76,1.02-1.45,1.81-2.84,1.18
		c-0.2-0.09-0.48,0-0.72,0.03c-2.33,0.31-4.3,2.34-4.67,4.89c-0.73,5.03,0.73,9.41,4.04,13.21c0.43,0.49,0.87,0.97,1.35,1.5
		c-3.72,0.55-4.83,1.82-6.86,3.59c-1.69,1.48-2.25,3.46-2.29,5.59c-0.01,0.53,0.4,1.3,0.85,1.55c0.4,0.22,1.16-0.02,1.68-0.24
		c0.46-0.19,0.79-0.66,1.21-0.97c2.01-1.49,4.05-2.83,6.78-2.44c0.8,0.11,1.67-0.22,2.5-0.39c0.34-0.07,0.65-0.24,1.04-0.38
		c-0.51,3.49-1.13,6.83-1.46,10.2c-0.75,7.7-3.46,14.67-7.43,21.16c-3.03,0.12-6,0.33-8.87,0.63c0.09-0.64,0.18-1.29,0.24-1.94
		c0.17-1.7,0.69-3.18,1.79-4.39c1.7-1.88,2.49-4.17,3.23-6.51c0.24-0.75,0.29-1.49-0.44-1.98c-0.77-0.51-1.41-0.05-1.96,0.47
		c-0.47,0.45-0.88,0.97-1.44,1.6c0.02-0.49,0.04-0.78,0.05-1.08c0.18-3.48,0.58-6.96,0.49-10.43c-0.15-5.61-0.64-11.21-0.96-16.82
		c-0.32-5.52-0.71-11.04,0.03-16.56c0.16-1.22,0.44-2.42,0.68-3.77c0.58,0.38,0.97,0.62,1.35,0.87c2.69,1.81,5.62,2.71,8.76,1.59
		c1.76-0.63,3.4-1.65,4.98-2.67c2.12-1.36,4.23-2.65,6.75-3.18c2.04-0.43,4.04-1.07,5.73-2.34c0.8-0.6,1.57-1.4,2.01-2.28
		c1-2.01,1.1-4.1-0.3-6.11c0.77-0.44,1.5-0.86,2.23-1.29c4.11-2.44,5.86-6.22,5.54-10.8c-0.17-2.44-0.22-4.72,0.84-6.95
		c0.09-0.19,0.13-0.41,0.2-0.61c0.68-2.18,0.55-4.3-0.23-6.46c-1.2-3.32-3.59-5.59-6.57-7.09c-2.49-1.25-5.25-1.97-7.91-2.84
		c-0.99-0.32-1.79-0.73-2.45-1.6c-1.27-1.68-2.64-3.34-4.72-4.08c-2.38-0.85-4.8-1.45-7.15-0.53c-0.95-1.5-1.7-2.99-2.73-4.26
		c-1.87-2.32-4.65-1.8-5.67,0.97c-0.63,1.71-1.56,2.31-3.37,2.09c-0.87-0.11-1.73-0.36-2.6-0.53c-3.13-0.6-5.95-0.07-8.19,2.39
		c-1.15,1.27-2.59,1.97-4.26,2.34c-2.02,0.44-4.09,0.81-5.73,2.25c-0.1,0.08-0.28,0.09-0.43,0.09c-2.21,0.01-3.99,0.97-5.51,2.5
		c-1.96,1.98-3,4.45-3.57,7.12c-0.63,2.95-1.42,5.74-3.43,8.16c-1.03,1.25-1.71,2.74-1.88,4.36c-0.17,1.67,0.5,2.96,0.7,4.52
		c0.25,1.94-2.31,1.58-3.16,2.86c-0.38,0.59-0.42,1.33-0.32,2.03l-4.07-19.23c-0.14-0.82-0.7-1.47-1.46-1.74
		c-0.12-0.06-0.25-0.1-0.37-0.12l-0.15-0.03c-0.06,0-0.12,0-0.14,0c-0.87-0.06-1.66,0.38-2.05,1.04l-3.08,3.33l-17.32,4.23
		l-0.66-2.44c-0.1-0.79-0.67-1.41-1.45-1.58c-0.69-0.15-1.38,0.1-1.78,0.59l-9.8,8.19l0.59-27.98c0.02-0.8-0.38-1.53-1.07-1.97
		l-0.04-0.03c-0.05-0.04-0.09-0.06-0.1-0.05l-0.07-0.04c-0.05-0.03-0.1-0.06-0.15-0.08c-0.05-0.02-0.09-0.03-0.13-0.04
		c-0.03-0.01-0.06-0.01-0.09-0.02c-0.94-0.26-1.91,0.07-2.48,0.85l-1.99,2.76l-16.82,0.73l-0.56-2.38c-0.05-0.71-0.5-1.31-1.16-1.58
		c-0.74-0.3-1.55-0.11-2.06,0.48l-0.65,0.71l0.41-19.43c0.02-0.85-0.41-1.62-1.14-2.08l-0.05-0.04c-0.17-0.13-0.37-0.21-0.58-0.25
		c-0.98-0.27-2,0.08-2.59,0.9l-2.34,3.25l-19.95,1.71l-0.16-3.54c0.05-0.82-0.41-1.56-1.17-1.88c-0.76-0.32-1.61-0.13-2.17,0.48
		L51.77,69.54c-0.86,0.94-1.33,2.17-1.33,3.46l0.07,5.65l-3.06-0.06l0.06-3.93c0.05-0.8-0.4-1.51-1.13-1.82
		c-0.73-0.31-1.55-0.13-2.09,0.46L20.45,99.56c-0.78,0.86-1.21,1.98-1.21,3.15l1.47,138.88c0.01,2.61,2.04,4.72,4.62,4.79l13.3,0.9
		l0.13,0c0.5,0,1.01-0.11,1.56-0.33c0.11-0.03,0.22-0.08,0.3-0.13c0.88-0.43,1.55-1.11,1.87-1.86l9.89-15.74l0.23,18.71
		c0.01,2.87,2.27,5.19,5.14,5.28l21.63,0.66l0.14,0c1.82,0,3.46-1.08,4.18-2.74l2.93-6.73c0.73,1.69,2.35,2.81,4.24,2.87l18.9,0.56
		l0.09,0.01c0.03,0,0.07,0,0.12,0l0.11-0.01c1.63-0.05,3.04-1,3.7-2.51l19.28-46.45l11.97,59.26c0.43,2.27,2.42,3.91,4.71,3.91
		c0.25,0,0.5-0.02,0.76-0.06l18.74-2.92c1.81-0.28,3.15-2.61,3.18-2.67l12.08-16.14c1.88,0.58,3.86,1.02,5.95,1.28l0.05,0.01
		c0.23,0.03,0.55,0.07,0.92,0.07c0.01,0,0.02,0,0.03,0c1.62,0,3.15,0.77,4.14,2.05c0.87,1.11,1.78,2.12,2.9,3.32
		c8.11,8.69,19.27,13.1,33.18,13.1c14.32,0,25.72-4.61,33.89-13.7c7.25-8.07,11.8-19.43,13.52-33.76
		C280.31,202.39,279.6,194.33,279.51,193.4z M245.85,151.15c-1.25-0.93-2.53-1.83-3.76-2.8c-0.45-0.35-0.79-0.84-1.14-1.3
		c-0.77-1.01-1.52-2.05-2.26-3.07c1.89-0.59,4.95,0.46,6.24,2.18C246.42,148.17,246.7,149.83,245.85,151.15z M247.67,133.9
		c0.41,1.84,0.1,2.78-1.52,3.71c-1.4,0.8-2.94,1.36-4.42,2.03c0.17-2.19,0.34-4.14,0.47-6.09c0.07-1.07-0.46-1.92-1.11-2.73
		c-0.92-1.12-0.83-2.06,0.3-2.97c0.73-0.59,1.51-1.15,2.33-1.6c1.58-0.86,3.57-0.27,4.47,1.26c0.14,0.24,0.22,0.59,0.18,0.86
		c-0.08,0.6-0.19,1.22-0.42,1.77C247.43,131.37,247.39,132.6,247.67,133.9z M255.85,126.41c0.84,2.91,1.05,5.89,0.3,8.87
		c-0.13,0.5-0.49,0.99-0.86,1.37c-1.21,1.25-2.49,2.42-3.71,3.66c-1.19,1.21-2.57,1.79-4.29,1.54c-1.38-0.2-2.78-0.3-3.92-0.42
		c1.31-0.67,2.87-1.35,4.29-2.23c2.03-1.25,2.65-3.2,2.18-5.48c-0.21-1.02-0.22-1.97,0.2-2.95c0.24-0.55,0.33-1.17,0.46-1.77
		c0.27-1.34-0.12-2.47-1.11-3.4c-0.22-0.2-0.42-0.41-0.76-0.74c1.01-0.38,1.86-0.81,2.77-1.02
		C253.54,123.32,255.21,124.23,255.85,126.41z M237.38,118.45c0.75-0.03,1.35,0.17,1.88,0.74c1.59,1.69,2.81,1.9,4.92,0.92
		c0.47-0.22,0.92-0.5,1.42-0.64c1.23-0.35,2.43-0.29,3.46,0.56c0.64,0.52,1.22,1.1,1.9,1.71c-1.67,0.71-3.24,1.88-4.87,1.95
		c-2.59,0.11-4.42,1.34-6.46,3.01c-0.17-0.74-0.4-1.3-0.4-1.86c-0.01-2.68-1.61-3.9-4.26-3.25c-0.51,0.13-1.06,0.06-1.6,0.08
		c-0.02-0.12-0.03-0.24-0.05-0.36C234.28,119.79,235.39,118.52,237.38,118.45z M227.56,132.08c-0.85-2.34-1.36-4.72-0.72-7.16
		c0.23-0.88,0.85-1.75,1.5-2.41c0.82-0.82,1.94-0.78,2.81,0.02c1.35,1.24,2.79,1.72,4.61,1.14c1.01-0.32,1.31,0.02,1.27,1.1
		c-0.04,1.04,0.24,1.95,0.81,2.84c0.33,0.52,0.43,1.25,0.46,1.89c0.04,1,0.34,1.86,1.02,2.57c0.65,0.68,0.8,1.44,0.65,2.35
		c-0.13,0.83-0.18,1.7-0.12,2.54c0.12,1.67-1.06,2.52-2.06,3.47c-0.93,0.88-0.96,0.85-2.49,0.31c-1.23-0.46-2.54-1.32-3.66-2.55
		C229.97,136.36,228.42,134.47,227.56,132.08z M231.99,144.38c-3.33-0.47-6.01,0.89-8.67,2.64c0.62-2.38,2.47-3.69,4.41-4.8
		c2.53-1.44,4.87-0.06,7.48,0.77C234.08,143.74,233.09,144.53,231.99,144.38z M46.59,81.32l3.96,0.08l0.08,6.42l-13.65,15.53
		c-3.88,0.24-7.55-0.14-9.68-0.45c3.04-3.5,6.15-6.92,9.2-10.27C39.92,88.87,43.27,85.17,46.59,81.32z M36.72,128.67
		c-4.41,1.59-11.55,1.17-14.46-0.39l-0.05-4.63c2.06,0.79,4.86,1.21,7.7,1.21c2.35,0,4.72-0.28,6.72-0.86
		C36.66,125.51,36.69,127.07,36.72,128.67z M23.23,220.31c2.02,0.71,4.66,1.08,7.34,1.08c2.71,0,5.45-0.38,7.62-1.15
		c0.03,1.83,0.05,3.59,0.08,5.26l-0.24-0.54c-4.17,1.81-11.49,1.51-14.75,0.03L23.23,220.31z M38.03,217.71
		c-4.2,1.83-11.6,1.51-14.82-0.01l-0.92-86.78c2.06,0.77,4.81,1.18,7.62,1.18c2.4,0,4.83-0.3,6.86-0.91
		c0.49,26.08,1.03,62.32,1.39,86.8L38.03,217.71z M22.48,101.41l22.25-24.5l-0.04,2.4c-3.29,3.83-6.58,7.47-10.27,11.51
		c-3.56,3.91-7.24,7.96-10.8,12.13c-0.32,0.37-0.41,0.87-0.26,1.33c0.15,0.46,0.54,0.8,1.01,0.9c0.19,0.04,4.62,1,10.07,1
		c0.49,0,1-0.03,1.51-0.06l0.27-0.01c0.11,3.88,0.23,9.15,0.36,15.36c-4.46,1.54-11.57,1.09-14.4-0.49l-0.19-18.31
		C21.99,102.21,22.16,101.76,22.48,101.41z M25.46,243.63c-1.12-0.03-2-0.94-2-2.07l-0.15-13.98c2.01,0.69,4.61,1.05,7.26,1.05
		c2.75,0,5.53-0.39,7.72-1.19c0.13,9.28,0.22,15.62,0.24,17.06L25.46,243.63z M41.24,241.77c-0.28-20.52-1.55-110.46-2.28-136.22
		c0.15-0.18,0.25-0.39,0.3-0.63l11.42-12.99l1.63,132.2L41.24,241.77z M245.1,108.87c-1.16,0.7-2.47,1.16-3.76,1.6
		c-1.53,0.53-3.16,0.77-4.63,1.42c-1.38,0.61-2.63,1.52-3.86,2.41c-1.52,1.1-3.07,2.1-4.89,2.63c-1.35,0.39-2.61,0.19-3.8-0.47
		c-1.25-0.7-2.47-1.45-3.86-2.27c0.39-0.21,0.62-0.34,0.86-0.46c1.17-0.61,2.1-1.46,2.67-2.67c0.13-0.28,0.25-0.56,0.39-0.83
		c0.7-1.43,1.54-2.47,3.38-2.72c2.37-0.32,4.57-1.32,6.14-3.33c0.16-0.21,0.78-0.22,1.12-0.11c2.26,0.72,4.55,0.94,6.86,0.42
		c1.13-0.25,2.25-0.58,3.34-0.97c0.63-0.23,0.95-0.03,1.26,0.48C247.28,105.57,246.82,107.83,245.1,108.87z M232.99,100.24
		c-0.19,2.21-1.46,3.58-3.45,4.16c-2.98,0.87-6.01,1.65-9.15,1.62c-0.8-0.01-1.62-0.26-2.4-0.49c-3.83-1.15-7.64-2.38-11.48-3.49
		c-3.91-1.13-7.14-3.14-9.13-6.8c-0.38-0.69-0.6-1.46-0.85-2.21c-0.5-1.49-0.97-3-1.45-4.49c2.14,0.49,4.23,0.84,6.22,1.48
		c1.4,0.45,2.69,1.28,4.02,1.95c0.84,0.43,1.67,0.88,2.51,1.32c1.6,0.84,3.3,1.17,5.12,1.15c1.39-0.01,2.79,0.21,4.18,0.42
		c0.32,0.05,0.59,0.47,0.89,0.71c0.36,0.29,0.68,0.73,1.09,0.83c2.53,0.67,5.08,0.46,7.63,0.13c0.73-0.09,1.49-0.15,2.15-0.42
		c1.48-0.6,2.33,0.26,3.25,1.16C233,98.13,233.08,99.13,232.99,100.24z M232.58,93.49c0.28-0.57,0.46-1.2,0.65-1.81
		c0.5-1.56,1.37-2.83,2.77-3.75c1.07-0.7,2.13-1.44,3.1-2.27c1.06-0.9,2.01-1.92,2.95-2.83c1.4,4.65-2.04,13.73-6.37,16.34
		c-0.2-1.95-1.13-3.39-2.81-4.38C232.48,94.55,232.3,94.05,232.58,93.49z M242.02,68.37c3.11,1.15,6.4,1.9,9.14,3.91
		c2.96,2.18,4.45,5.08,3.94,8.78c-0.16,1.18-0.75,2.31-1.16,3.46c-0.46,1.3-0.48,2.61-0.35,3.97c0.12,1.3,0.17,2.62,0.06,3.92
		c-0.25,3.08-1.89,5.37-4.58,6.74c-2.38,1.22-4.88,2.23-7.4,3.13c-1.93,0.69-3.97,0.54-5.9-0.12c1.79-1.67,3.55-3.31,5.3-4.95
		c0.87-0.82,1.7-1.64,2.67-2.38c1.52-1.16,2.9-2.64,3.97-4.24c1.94-2.89,3.58-5.97,4.05-9.52c0.48-3.6-1.03-6.33-4.25-8.05
		c-1.6-0.85-3.06-1.97-4.53-3.04c-0.49-0.36-0.8-0.96-1.21-1.47C241.92,68.43,241.99,68.36,242.02,68.37z M234.35,62.71
		c1.93,1.05,3.57,2.4,4.39,4.59c1.26,3.37,3.78,5.63,6.86,7.32c0.16,0.09,0.32,0.18,0.48,0.27c3.48,2,4.25,3.56,3.21,7.39
		c-0.94,3.45-2.63,6.56-4.99,9.28c-0.09,0.11-0.21,0.19-0.48,0.41c0.77-3.16,0.57-6.16,0.44-9.17c-0.21-4.63-2.03-8.49-5.39-11.65
		c-0.24-0.23-0.49-0.46-0.7-0.72c-1.56-1.94-3.57-2.92-6.07-2.75c-0.71,0.05-1.13-0.19-1.42-0.85c-0.71-1.58-1.48-3.13-2.26-4.77
		C230.67,61.22,232.57,61.74,234.35,62.71z M231.72,69.9c2.85-0.36,4.47,1.37,6,3.28c1.15,1.44,2.05,3.02,2.58,4.82
		c0.56,1.92,0.21,3.6-1.33,4.89c-1.22,1.01-2.58,1.85-3.81,2.84c-1.27,1.02-2.46,2.13-3.73,3.24c-0.12-0.2-0.32-0.58-0.54-0.94
		c-0.62-1.02-1.52-1.52-2.71-1.21c-0.72,0.19-1.14-0.04-1.5-0.65c-0.31-0.53-0.62-1.08-1.06-1.48c-0.62-0.56-1.29-1.17-2.05-1.45
		c-1.59-0.58-2.57,0.09-2.88,1.76c-0.03,0.17-0.11,0.34-0.22,0.65c-0.51-0.23-1-0.44-1.48-0.67c-1.7-0.8-2.48-0.47-3.14,1.29
		c-0.07,0.19-0.31,0.48-0.43,0.46c-0.42-0.07-0.99-0.14-1.2-0.42c-1.04-1.43-1.68-3.05-1.18-4.82c0.64-2.27,0.79-4.55,0.78-6.88
		c-0.01-2.18,0.86-4.11,2.29-5.74c1.46-1.65,3.43-1.62,5.35-1.29c1.25,0.21,2.45,0.74,3.64,1.2
		C227.24,69.6,229.43,70.19,231.72,69.9z M195.26,69.43c0.41-1.79,1.7-2.93,3.4-3.55c0.71-0.26,1.47-0.42,2.21-0.58
		c2.3-0.51,4.41-1.32,6.09-3.11c2.03-2.17,4.57-2.32,7.28-1.58c0.88,0.24,1.79,0.43,2.7,0.47c2.22,0.1,3.72-0.98,4.46-3.07
		c0.59-1.66,0.91-1.72,2.11-0.36c1.47,1.66,2.3,3.65,2.99,5.73c0.44,1.32,0.92,2.63,1.36,3.9c-1.27-0.43-2.62-0.92-3.98-1.35
		c-2.66-0.86-5.32-1.15-7.89,0.29c-2.07,1.15-2.97,3.16-3.81,5.22c-0.19,0.48-0.34,0.98-0.53,1.55c-0.4-0.07-0.81-0.14-1.22-0.21
		c-4-0.74-7.44,0.64-10.7,2.8c-0.98,0.65-2.05,1.18-3.13,1.79C195.24,74.75,194.63,72.16,195.26,69.43z M196.62,79.72
		c1.85-0.6,3.51-1.46,5.04-2.7c2.7-2.17,5.83-2.84,9.22-1.99c0.28,0.07,0.67,0.5,0.66,0.76c-0.03,1.33,0.05,2.73-0.32,3.98
		c-0.86,2.92-0.25,5.48,1.43,7.89c0.27,0.39,0.46,0.83,0.72,1.31c-1.92,0.77-1.98,0.91-1.33,3.2c-1.44,0.18-2.6-0.51-3.78-1.14
		c-1.34-0.73-2.62-1.62-4.02-2.18c-1.74-0.69-3.6-1.11-5.4-1.65c-1.2-0.36-2.41-0.68-3.58-1.13c-1.6-0.62-2.46-1.89-2.55-3.58
		c-0.02-0.45,0.29-1.13,0.65-1.34C194.4,80.58,195.5,80.09,196.62,79.72z M183.25,86.03c0.55-1.01,1.15-2.03,1.89-2.91
		c1.37-1.63,2.07-3.48,2.41-5.55c0.37-2.23,0.91-4.43,2.07-6.42c0.87-1.48,2.14-2.51,3.71-3.26c-1.24,3.59-0.14,6.83,1.24,10.01
		c-0.91,0.49-1.83,0.88-2.64,1.44c-1.57,1.09-2.1,2.42-1.49,4.22c0.52,1.55,1.43,2.96,2,4.49c0.84,2.24,1.54,4.54,2.37,7.01
		c-2.75-1.26-5.52-1.52-8.26-1.9c-1.43-0.2-2.53-0.98-3.2-2.05C182.45,89.68,182.33,87.71,183.25,86.03z M180.47,95.34
		c1.36-1.37,4.55-0.34,6.29-0.07c0.23,0.04,0.44,0.13,0.63,0.25c1.74,0.32,3.48,0.68,5.21,1.02c0.21,0.04,0.42,0.12,0.59,0.23
		c1.9,1.18,3.98,2.03,5.61,3.7c1.01,1.04,2.37,1.87,3.73,2.43c3.13,1.3,6.34,2.39,9.53,3.53c3.42,1.21,6.9,2.06,10.89,1.71
		c-1.29,1.51-1.84,3.26-3.61,4.01c-1.98,0.84-3.79,1.85-4.64,4.02c-0.12,0.3-0.68,0.64-1.01,0.62c-1.05-0.05-2.14-0.11-3.12-0.44
		c-2.14-0.72-4.2-1.68-6.34-2.4c-1.35-0.45-2.78-0.71-4.19-0.95c-4.32-0.75-6.19-3.84-7.35-7.61c-0.13-0.43-0.15-0.9-0.25-1.35
		c-0.52-2.24-1.76-3.17-4.05-3.14c-1.91,0.02-4.14,0.12-5.96-0.74C180.81,99.4,178.79,97.04,180.47,95.34z M185.58,102.76
		c0.15,0.01,0.29,0.06,0.43,0.12c0.67,0.06,1.35,0.13,2.02,0.16c1.6,0.06,1.93,0.16,2.24,1.75c0.42,2.13,1.18,4.12,2.32,5.95
		c1.78,2.86,4.26,4.73,7.73,4.86c3.02,0.12,5.74,1.12,8.32,2.57c1.38,0.78,2.86,1.12,4.4,1.04c0.91-0.05,1.8-0.38,2.52-0.55
		c-0.17,4.09-0.34,8.36-0.52,12.58c-0.04-0.05-0.15-0.2-0.25-0.36c-1.15-1.72-2.36-3.41-3.44-5.18c-1.24-2.03-2.36-4.13-3.52-6.21
		c-0.1-0.18-0.15-0.4-0.25-0.59c-0.34-0.67-0.82-1.18-1.64-1.06c-0.81,0.12-1.05,0.76-1.16,1.46c-0.9,5.66,0.69,10.46,4.97,14.31
		c1.79,1.61,3.67,3.12,5.5,4.7c0.18,0.16,0.37,0.43,0.38,0.65c0.32,4.93,0.85,9.87,0.86,14.81c0.02,8.15-0.83,16.25-2.05,24.31
		c-1.06,0.14-2.1,0.29-3.13,0.45c-0.72-2.83-1.79-5.52-3.18-8.12c-0.37-0.69-0.35-1.65-0.32-2.48c0.09-2.69-0.32-5.29-1.2-7.83
		c-0.64-1.84-1.71-3.37-3.05-4.74c-1.52-1.55-3.07-3.06-4.63-4.57c-1.32-1.28-2.36-2.71-2.62-4.61c-0.11-0.8-0.58-1.4-1.46-1.36
		c-0.83,0.04-1.23,0.67-1.33,1.41c-0.13,0.97-0.25,1.95-0.22,2.92c0.1,3.53,0.65,6.99,1.73,10.36c1.27,3.97,3.65,7.04,7.41,8.9
		c1.68,0.83,2.78,2.12,3.59,3.73c1.14,2.24,2.02,4.52,2.69,6.83c-3.71,0.68-7.18,1.52-10.28,2.52c-0.89,0.29-1.73,0.59-2.54,0.9
		l-17.96-84.83C178.86,100.85,182.37,102.45,185.58,102.76z M148.41,87.36c0.03,0,0.07,0,0.11-0.01l14.04-3.43l-22.14,21.17
		c-5.37,1.5-10.58,2.29-15.9,2.41L148.41,87.36z M77.96,251.07l-20.14-0.62c-1.38-0.04-2.47-1.16-2.47-2.55L53.28,80.57
		c0.06-0.15,0.09-0.31,0.1-0.48c0-0.18-0.03-0.36-0.11-0.54l-0.08-6.57c0-0.59,0.22-1.16,0.61-1.59l25.85-28.46l0.11,2.52
		c-7.16,8.43-19.8,23.78-23.51,28.3l-0.19,0.23c-0.3,0.37-0.39,0.85-0.24,1.3c0.15,0.45,0.51,0.79,0.97,0.9
		c3.38,0.86,6.88,1.27,11,1.27c3.69,0,7.33-0.32,11.19-0.66l0.01,0C76.57,108.28,77.36,234.08,77.96,251.07z M79.47,73.98
		l-0.74,0.06c-6.6,0.58-12.84,1.13-19.12-0.06c3.89-4.73,15.42-18.72,22.14-26.64l19.23-1.65C93.14,55.88,86.09,65.14,79.47,73.98z
		 M86.16,238.57l-4.99,11.45c-0.12,0.27-0.3,0.48-0.48,0.63c-0.62-18.05-1.36-146.63,1.15-175.07c0-0.05,0-0.1-0.01-0.16
		c7.88-10.51,16.12-21.33,24.51-32.18l-0.41,19.35c-0.01,0.26,0.06,0.51,0.19,0.73L85.52,86c-0.78,0.86-1.21,1.97-1.21,3.15
		L86.16,238.57z M108.42,245.04l-17.47-0.53c-1.12-0.04-1.99-0.95-2-2.07l-1.9-153.31c0-0.48,0.18-0.93,0.5-1.28l22.68-24.97
		l0.3,1.32c-7.06,8.32-20.09,24.17-20.65,24.86c-0.3,0.37-0.39,0.85-0.24,1.3c0.15,0.45,0.51,0.79,0.97,0.9
		c4.32,1.1,8.48,1.62,13.09,1.62c1.67,0,3.51-0.08,5.6-0.24C107.19,120.83,107.95,230.66,108.42,245.04z M109.83,89.84
		c-6.3,0.53-11.39,0.3-16.41-0.76c2.75-3.34,13.13-15.94,19.18-23.08l15.88-0.69C121.69,74.14,115.58,82.17,109.83,89.84z
		 M131.99,194.29l-20.73,49.94c-0.03,0.08-0.07,0.15-0.12,0.21c-0.52-16.99-1.15-128.43,1.02-153.02c0-0.04,0-0.07,0-0.1
		c6.74-8.99,13.85-18.32,21.13-27.74l-0.59,27.87l-16.85,14.08c-0.11,0.09-0.21,0.2-0.29,0.33c-0.61,0.99-0.82,2.17-0.6,3.32
		l17.15,84.9C132.06,194.14,132.02,194.21,131.99,194.29z M117.65,108.65c-0.08-0.4-0.02-0.82,0.15-1.18l28.37-23.71l0.41,1.54
		l-24.48,20.64c-0.76,0.64-1.03,1.65-0.7,2.59c0.33,0.94,1.19,1.55,2.18,1.57c5.42,0.1,10.86-0.59,16.69-2.14l23.29,119.75
		c-4.52,4.77-16.85,5.51-21.13,3.64L117.65,108.65z M142.99,234.07c1.58,0.4,3.59,0.62,5.79,0.62c5.24,0,11.51-1.25,15.33-4.21
		l1.4,7.22c-4.32,4.81-16.47,5.63-21,3.88L142.99,234.07z M168.82,256.33l-18.73,2.92c-1.11,0.16-2.14-0.57-2.35-1.67l-2.69-13.31
		c1.54,0.36,3.46,0.56,5.54,0.56c5.31,0,11.66-1.27,15.47-4.31l3.04,15.61C168.91,256.29,168.83,256.33,168.82,256.33z
		 M171.33,253.26l-28.52-146.66l28.49-27.25l22.03,104.07c-6.2,2.79-9.46,6.2-9.49,9.99l-0.01,0.21c-0.08,1.19-0.17,2.79-0.2,4.72
		c-0.01,0.61-0.52,1.11-1.13,1.1l-0.01,0l-0.01,0h-0.03h-0.02h0c-3.76,0-7.26,1.1-10.13,3.17c-1.97,1.42-6.53,5.65-6.32,14.21
		c0.22,8.58,4.1,15.36,11.53,20.17c1.34,0.87,2.78,1.62,4.3,2.26L171.33,253.26z M184.6,214.5c0.54,3.77,1.35,7.74,2.54,11.71
		c-0.24-0.07-0.47-0.15-0.68-0.23c-2.71-1.06-4.68-2.95-5.55-5.3c-1.46-3.93-0.3-5.29,0.4-6.11c0.35-0.41,0.91-0.68,1.93-0.94
		c0,0,0.01,0,0.01,0C183.88,213.48,184.51,213.87,184.6,214.5z M190.84,238.47c-4.42-0.56-8.39-1.93-11.67-4.04
		c-6.53-4.22-9.94-10.16-10.13-17.66c-0.18-7.1,3.46-10.5,5.04-11.64c3.05-2.19,6.28-2.59,8.36-2.59l0.64,0
		c0.42,0,0.76,0.34,0.77,0.75c0.03,1.52,0.19,3.89,0.32,5.6c0.06,0.78-0.46,1.48-1.22,1.65c-1.58,0.35-2.96,0.84-3.98,2.04
		c-1.27,1.49-2.85,4.02-0.94,9.17c1.15,3.1,3.71,5.67,7.31,7.09c0.66,0.26,1.37,0.46,2.07,0.61c0.65,0.14,1.2,0.59,1.45,1.21
		c0.93,2.34,1.53,4.13,2.69,6.11C192.69,238.76,191.58,238.56,190.84,238.47z M263.27,244.31c-7.56,8.42-18.19,12.68-31.6,12.68
		c-13.02,0-23.43-4.08-30.93-12.12c-15.04-16.13-14.4-43.13-13.85-51.03l0.02-0.28c0-0.03,0-0.05,0-0.08
		c0-6.34,18.38-13.41,44.76-13.41c26.37,0,44.76,7.07,44.76,13.41c0,0.05,0,0.1,0.01,0.15C276.47,193.96,279.7,226.02,263.27,244.31
		z"/>
	<path class="st0" d="M272.05,192.57c-0.55-0.1-1.09,0.27-1.19,0.82l-0.05,0.26c0,0-0.01,0.05-0.03,0.14c-0.01,0.05,0,0.1-0.03,0.17
		c-0.03,0.07-0.06,0.15-0.08,0.24c-0.15,0.36-0.58,0.94-1.44,1.54c-0.29,0.21-0.65,0.42-1.02,0.63c-0.13-5.02-16.44-9.66-36.55-9.66
		c-20.07,0-36.36,4.62-36.55,9.63c-0.38-0.2-0.73-0.4-1.03-0.6c-0.89-0.56-1.37-1.12-1.58-1.48c-0.03-0.07-0.08-0.13-0.12-0.18
		c-0.04-0.07-0.05-0.2-0.08-0.27c-0.04-0.16-0.06-0.24-0.06-0.24c-0.08-0.33-0.38-0.59-0.73-0.6c-0.43-0.01-0.79,0.33-0.8,0.76
		c0,0,0,0.08-0.01,0.25c0,0.09-0.02,0.16,0.01,0.32c0.03,0.17,0.07,0.38,0.13,0.61c0.24,0.82,0.91,1.78,1.93,2.6
		c2.05,1.66,5.34,2.94,9.29,4.02c1.98,0.54,4.15,1.01,6.45,1.42c2.3,0.41,4.74,0.76,7.27,1.03c2.53,0.27,5.14,0.48,7.81,0.61
		c2.66,0.13,5.37,0.19,8.07,0.19c2.69-0.01,5.42-0.09,8.07-0.23c2.66-0.14,5.28-0.35,7.8-0.62c5.05-0.54,9.74-1.39,13.71-2.44
		c3.97-1.05,7.21-2.38,9.31-3.97c1.05-0.78,1.77-1.72,2.07-2.53c0.07-0.21,0.12-0.39,0.17-0.55c0.04-0.16,0.04-0.31,0.06-0.43
		c0.02-0.23,0.03-0.35,0.03-0.35C272.93,193.14,272.57,192.67,272.05,192.57z"/>
	<path class="st0" d="M72.08,230.85c0,0-1.72-0.02-3.88-0.06c-0.03-0.2-0.01-0.74,0.02-0.96c1.45-0.58,2.85-1.09,4.27-1.73
		c0.08-0.04,0.2-0.2,0.21-0.29c0.13-0.77,0.08-1.7,0.04-2.47c-0.01-0.18-0.2-0.3-0.37-0.25c-0.55,0.15-1.57,0.73-5.11,2.22
		c-0.71-0.9-1.74-1.82-3.72-1.87c-2.45-0.07-3.9,1.32-4.17,3.49c-0.12,0.97-0.09,2.15-0.11,3.12c-0.02,0.8,0.01,1.37,0.62,1.51
		c2.12,0.11,11.42,0.05,12.46,0.04c0.18,0.02,0.34-0.08,0.4-0.25c0.04-0.14,0.08-0.28,0.09-0.43
		C72.85,230.88,72.63,230.95,72.08,230.85z M65.42,230.78c-2.05,0.06-3.44,0.05-3.71,0.01c-0.01-0.57-0.05-1.02,0.14-1.62
		c0.25-0.67,0.67-0.85,1.45-0.85c1.71,0,1.98,0.78,2.08,1.66C65.42,230.32,65.43,230.62,65.42,230.78z"/>
	<path class="st0" d="M59.95,223.24c1.31,0.11,2.7,0.08,4.6,0.07c1.4-0.01,5.54,0,7.39-0.05c0.37-0.01,0.6-0.23,0.6-0.42
		c0-1.77-0.01-2.47,0.03-3.75c-0.01-0.97,0.04-1.21-0.01-1.37c0-0.67-0.16-0.8-0.63-0.82c-1.11-0.06-1.97-0.13-1.97,0.56
		c-0.05,0.31,0.02,2.24-0.05,3.03c-0.84-0.02-2.51,0.01-2.75-0.05c-0.06-1.69,0.04-2.08-0.06-2.37c-0.03-0.08-0.04-0.24-0.27-0.27
		c-0.65-0.09-1.36-0.03-1.92-0.02c-0.14,0-0.28,0.04-0.35,0.17c-0.05,0.1-0.07,0.22-0.07,0.34c-0.04,1.24,0.02,1.85-0.03,2.25
		c-0.75-0.02-2.28,0.07-2.7,0.02c-0.06-2.3-0.06-2.59-0.1-3.1c-0.02-0.24-0.14-0.41-0.39-0.46c-0.38-0.07-0.75,0-1.13-0.01
		c-0.88-0.01-0.89,0.1-0.89,0.93C59.22,223.48,59.14,223.12,59.95,223.24z"/>
	<path class="st0" d="M59.73,212.67c0,0,10.91,2.86,11.36,2.97c0.61,0.15,1.39,0.35,1.42-0.36c0.03-0.7,0.04-1.21,0.02-1.61
		c-0.03-0.5,0.01-0.73-0.74-0.93c-0.16-0.04-0.64-0.15-1.32-0.29c-0.01-0.81-0.01-2.01-0.02-2.68c0.68-0.15,1.16-0.26,1.32-0.31
		c0.75-0.21,0.71-0.45,0.73-0.94c0.02-0.4-0.01-0.9-0.04-1.61c-0.04-0.7-0.82-0.49-1.43-0.34c-0.45,0.11-11.32,3.12-11.32,3.12
		c-0.31,0.11-0.47,0.31-0.53,0.51c-0.02,0.06-0.04,0.19-0.03,0.24c0,0.11,0.01,1.38,0.01,1.49c0,0.04,0.02,0.19,0.04,0.24
		C59.26,212.36,59.42,212.56,59.73,212.67z M68.11,210.28l0.01,1.68c-1.26-0.26-2.69-0.55-4.02-0.81
		C65.44,210.86,66.86,210.55,68.11,210.28z"/>
	<path class="st0" d="M60.35,204.9c0.57,0.03,2.65,0.01,3.88,0.03c3.04,0.04,6.4,0,7.21,0c0.25,0,0.82-0.16,0.9-0.75
		c0.23-1.68,0.09-3.51-0.16-4.31c-0.43-1.26-0.98-2.25-2.4-2.9c-2.17-0.92-3.77-0.84-5.78-0.63c-2.57,0.27-4.52,2.06-4.81,5.39
		c-0.11,0.68-0.09,1.79,0.11,2.46C59.42,204.64,59.49,204.86,60.35,204.9z M65.9,198.92c2.2-0.02,3.88,0.57,3.89,3.16
		c-0.75-0.03-6.69,0.15-7.95-0.03C61.82,199.19,63.82,198.94,65.9,198.92z"/>
	<path class="st0" d="M59.96,194.55c0.22,0,9.94-0.12,10.57-0.03c1.82,0.03,1.88-0.3,1.88-1.25c-0.01-1.02,0.05-1.6-0.64-1.67
		c-0.71-0.08-10.38-0.18-11.61-0.17c-0.77,0.01-1,0.01-1.06,0.35c-0.08,0.51-0.09,1.56-0.01,2.31
		C59.12,194.31,59.24,194.55,59.96,194.55z"/>
	<path class="st0" d="M59.08,186.77c-0.13,0.71-0.05,1.02-0.02,1.68c0.02,0.33,0.28,0.58,0.71,0.59
		c10.26,0.06,12.15,0.17,12.47-0.17c0.27-0.29,0.23-0.66,0.26-1.05c0.02-0.26-0.01-0.66-0.04-0.93c-0.03-0.27-0.18-0.44-0.46-0.49
		c-0.1-0.02-6.89-0.18-7.1-0.21c1.5-0.74,6.51-3.6,6.92-3.82c0.26-0.14,0.42-0.28,0.47-0.58c0.06-0.58,0.07-0.75,0.06-1.57
		c0-0.58,0.07-0.87-1.46-0.87c-1.08,0-9.06-0.12-10.97-0.05c-0.28-0.03-0.86,0.03-0.86,0.56c0,0.63,0.04,1.15,0.06,1.78
		c0.01,0.38,0.24,0.56,0.59,0.63c0.81,0.18,6.71-0.14,6.89-0.08c-0.2,0.1-5.94,3.42-7.19,4.2C59.25,186.48,59.12,186.6,59.08,186.77
		z"/>
	<path class="st0" d="M65.99,177.58c3.71-0.03,6.58-1.5,6.56-4.54c-0.01-1.85-1.47-3.3-3.19-3.72c-1.22-0.29-2.43-0.3-3.75-0.24
		c-0.05,0-0.1,0.01-0.14,0.02c-0.16,0.03-0.29,0.17-0.3,0.33c-0.07,1.14-0.13,2.3-0.08,3.56c0.01,0.17,0.12,0.35,0.29,0.38
		c0.49,0.09,0.95,0.04,1.45,0.05c0.34,0,0.5-0.1,0.52-0.45c0.02-0.29,0.05-1.06,0.06-1.25c0.96-0.05,2.01,0.23,2.33,1.01
		c0.3,0.7-0.08,1.26-0.78,1.52c-0.98,0.37-2.56,0.87-5.95,0.23c-0.85-0.16-1.59-0.6-1.74-0.96c-0.1-0.24-0.01-0.66,0.33-0.84
		c0.08-0.04,0.16-0.08,0.25-0.12c0.16-0.07,0.25-0.24,0.21-0.41c-0.17-0.79-0.31-1.41-0.49-2.22c-0.03-0.15-0.18-0.25-0.33-0.23
		c-0.51,0.08-0.94,0.29-1.33,0.56c-1.18,0.87-1.44,2.09-1.43,3.1C58.51,177.02,63.15,177.59,65.99,177.58z"/>
	<path class="st0" d="M59.94,158.44c-0.77,0.01-1,0.01-1.06,0.35c-0.08,0.51-0.09,1.56-0.01,2.31c0.02,0.22,0.15,0.45,0.86,0.46
		c0.22,0,9.94-0.12,10.57-0.03c1.82,0.03,1.88-0.3,1.88-1.25c-0.01-1.02,0.05-1.6-0.64-1.67C70.84,158.53,61.17,158.43,59.94,158.44
		z"/>
	<path class="st0" d="M69.95,149.74c-1.4-0.5-2.59-0.23-3.59,0.4c-1.35,0.85-2.3,2.27-3.1,2.97c-0.91,0.8-1.8,0.46-1.89-0.14
		c-0.04-0.32,0.03-0.84,0.64-1.41c0.27-0.24,0.09-0.66-0.11-1.03c-0.21-0.38-0.31-0.53-0.46-0.72c-0.12-0.15-0.55-0.25-0.84-0.07
		c-0.91,0.57-1.9,1.53-1.99,2.93c-0.03,0.47,0,1.4,0.54,2.19c0.97,1.42,3.07,1.74,4.35,1.18c1.28-0.57,2-1.45,3.35-2.78
		c0.71-0.7,1.17-1.28,2.15-0.91c0.73,0.28,0.8,1.39,0.33,1.79c-0.27,0.24-0.44,0.33-0.75,0.46c-0.25,0.1-0.31,0.3-0.29,0.44
		c0.07,0.49,0.3,1,0.45,1.57c0.04,0.15,0.21,0.41,0.63,0.36c0.66-0.07,1.12-0.29,1.66-0.65C73.19,154.71,72.79,150.77,69.95,149.74z
		"/>
	<path class="st0" d="M65.75,142.33c3.71-0.03,6.58-1.5,6.56-4.54c-0.01-1.85-1.47-3.3-3.19-3.72c-1.22-0.29-2.43-0.3-3.75-0.24
		c-0.05,0-0.1,0.01-0.14,0.02c-0.16,0.03-0.29,0.17-0.3,0.33c-0.07,1.14-0.13,2.3-0.08,3.56c0.01,0.17,0.12,0.35,0.29,0.38
		c0.49,0.09,0.95,0.04,1.45,0.05c0.34,0,0.5-0.1,0.52-0.45c0.02-0.29,0.05-1.07,0.06-1.25c0.96-0.05,2.01,0.23,2.33,1.01
		c0.3,0.7-0.08,1.26-0.78,1.52c-0.98,0.37-2.56,0.87-5.95,0.23c-0.86-0.16-1.59-0.6-1.74-0.96c-0.1-0.24-0.01-0.66,0.33-0.84
		c0.08-0.04,0.16-0.08,0.25-0.12c0.16-0.07,0.25-0.24,0.21-0.41c-0.17-0.79-0.31-1.41-0.48-2.22c-0.03-0.15-0.18-0.25-0.33-0.23
		c-0.51,0.08-0.94,0.29-1.33,0.56c-1.18,0.87-1.44,2.09-1.43,3.11C58.27,141.77,62.91,142.35,65.75,142.33z"/>
	<path class="st0" d="M63.31,123.39c-1.49,0.12-4.92,0.97-4.85,4.47c0.06,3.15,2.75,4.19,6.46,4.41c3.06,0.09,6.01-0.43,6.99-2.4
		c0.64-1.43,0.65-3.07-0.46-4.57C69.11,122.95,65.02,123.33,63.31,123.39z M68.83,129c-0.57,0.25-2.18,0.47-3.46,0.43
		c-2.43-0.08-4.15-0.55-4.26-1.56c-0.1-0.93,0.65-1.46,2.56-1.72c0.91-0.12,3.16-0.04,4.03,0.14c0.3,0.09,0.6,0.19,0.9,0.3
		C69.92,127.11,70.01,128.47,68.83,129z"/>
	<path class="st0" d="M64.85,121.83c3.06,0.09,6.01-0.43,6.99-2.4c0.64-1.43,0.65-3.07-0.46-4.57c-2.34-2.35-6.42-1.97-8.14-1.91
		c-1.49,0.12-4.92,0.97-4.85,4.47C58.44,120.57,61.14,121.61,64.85,121.83z M63.6,115.73c0.91-0.12,3.16-0.04,4.03,0.14
		c0.3,0.09,0.6,0.19,0.9,0.3c1.32,0.51,1.42,1.87,0.23,2.4c-0.57,0.25-2.18,0.47-3.45,0.43c-2.43-0.08-4.15-0.55-4.26-1.56
		C60.93,116.52,61.69,115.99,63.6,115.73z"/>
	<path class="st0" d="M59.72,111.09c0.57,0.03,2.65,0.01,3.88,0.03c3.04,0.04,6.4,0,7.21,0c0.25,0,0.82-0.16,0.9-0.74
		c0.23-1.68,0.09-3.52-0.16-4.31c-0.43-1.26-0.98-2.25-2.4-2.91c-2.17-0.92-3.77-0.84-5.78-0.63c-2.57,0.27-4.52,2.06-4.81,5.39
		c-0.11,0.68-0.09,1.79,0.11,2.46C58.79,110.83,58.86,111.04,59.72,111.09z M65.27,105.11c2.2-0.02,3.88,0.57,3.89,3.16
		c-0.75-0.03-6.69,0.15-7.95-0.03C61.19,105.38,63.19,105.13,65.27,105.11z"/>
	<path class="st0" d="M102.76,218.38c-0.22,0-1.69,0.02-3.37,0.03c-0.04-1.6,0.04-1.86-0.06-2.14c-0.03-0.08-0.04-0.23-0.26-0.27
		c-0.65-0.1-1.36-0.03-1.92-0.02c-0.14,0-0.28,0.05-0.35,0.17c-0.05,0.1-0.07,0.22-0.07,0.34c-0.03,1.07,0,1.52-0.02,1.94
		c-1.42,0.01-2.56,0.01-2.71-0.01c-0.05-2.3-0.06-2.59-0.1-3.1c-0.02-0.24-0.14-0.41-0.39-0.46c-0.38-0.07-0.75-0.01-1.13-0.01
		c-0.88-0.01-0.89,0.1-0.89,0.93c-0.02,5.56-0.09,5.2,0.72,5.32c1.31,0.11,2.7,0.09,4.59,0.08c1.4-0.01,5.54,0.01,7.39-0.04
		c0.37-0.01,0.59-0.23,0.6-0.42c0.05-0.63,0.04-1.05,0.04-1.77C104.82,218.15,104.29,218.37,102.76,218.38z"/>
	<path class="st0" d="M96.12,205.11c-1.49,0.11-4.92,0.96-4.86,4.46c0.05,3.15,2.75,4.19,6.46,4.42c3.06,0.1,6.01-0.42,6.99-2.39
		c0.64-1.43,0.65-3.07-0.45-4.57C101.92,204.68,97.83,205.05,96.12,205.11z M101.63,210.74c-0.57,0.25-2.18,0.47-3.46,0.43
		c-2.43-0.09-4.15-0.56-4.26-1.56c-0.1-0.93,0.65-1.46,2.57-1.71c0.91-0.12,3.16-0.03,4.03,0.15c0.3,0.09,0.6,0.19,0.9,0.3
		C102.72,208.84,102.81,210.21,101.63,210.74z"/>
	<path class="st0" d="M104.43,194.74c-0.56,0.15-1.57,0.73-5.11,2.21c-0.71-0.9-1.73-1.82-3.72-1.87c-2.46-0.07-3.9,1.32-4.17,3.48
		c-0.12,0.97-0.09,2.15-0.11,3.12c-0.02,0.8,0.01,1.37,0.62,1.51c2.12,0.12,11.42,0.06,12.46,0.05c0.18,0.02,0.34-0.08,0.4-0.25
		c0.04-0.14,0.08-0.28,0.09-0.43c0.03-2.04-0.19-1.98-0.74-2.07c0,0-1.72-0.02-3.88-0.06c-0.03-0.2-0.01-0.74,0.02-0.96
		c1.45-0.57,2.85-1.08,4.27-1.73c0.08-0.04,0.2-0.2,0.21-0.29c0.13-0.77,0.09-1.7,0.05-2.47
		C104.79,194.82,104.6,194.7,104.43,194.74z M97.47,200.43c-2.05,0.06-3.44,0.05-3.71,0c-0.01-0.57-0.05-1.02,0.14-1.62
		c0.26-0.67,0.68-0.85,1.45-0.85c1.71,0.01,1.98,0.79,2.08,1.66C97.48,199.97,97.48,200.27,97.47,200.43z"/>
	<path class="st0" d="M91.28,187.65c0.02,0.44,0.14,0.59,0.32,0.63c0.53,0.09,1.13,0.01,1.75,0.03c0.26,0.01,0.53-0.14,0.53-0.46
		c0-0.68,0.01-1.3,0.03-1.97c2.11-0.06,8.21,0,8.68-0.01c0.97-0.02,1.69,0.05,1.96-0.14c0.06-0.04,0.1-0.11,0.12-0.2
		c0.08-0.21,0.09-0.4,0.09-0.9c0-1.02,0.05-1.51-0.64-1.56c-1.35-0.09-9.58,0.02-10.22-0.01c-0.02-0.62-0.01-1.37-0.05-2.01
		c-0.01-0.17-0.15-0.43-0.45-0.47c-0.35-0.04-1.38-0.06-1.71-0.06c-0.33,0-0.42,0.18-0.42,0.94
		C91.29,185.39,91.25,186.79,91.28,187.65z"/>
	<path class="st0" d="M103.93,173.61c0.41,0,0.55-0.2,0.58-0.52c0.06-2.08,0.08-2.38-0.79-2.42c-0.96-0.04-5.17-0.05-11.66-0.08
		c-0.32-0.01-0.77-0.01-0.76,0.39c0,0.62,0.02,1.27,0.01,1.93c0,0.35,0.11,0.51,0.59,0.54c1.92,0.04,3.99,0.08,4.69,0.11
		c0.08,0.66,0,1.84,0.05,2.81c-0.13-0.02-1.73-0.04-4.67-0.02c-0.61-0.03-0.64,0.25-0.61,0.85c-0.01,0.51-0.02,1.06,0.01,1.59
		c0.03,0.36,0.18,0.53,0.57,0.54c1.89,0.06,9.86-0.04,12.02-0.09c0.27-0.03,0.63,0,0.62-0.23c0.07-0.7,0.04-1.39,0.01-2.11
		c-0.01-0.56-0.58-0.53-1.22-0.54c-2.44-0.06-3.5-0.02-4.02-0.09c-0.04-0.43-0.04-2.22-0.05-2.7
		C100.05,173.62,102.8,173.6,103.93,173.61z"/>
	<path class="st0" d="M91.89,168.16c1.31,0.11,2.7,0.09,4.6,0.08c1.4-0.01,5.54,0.01,7.39-0.04c0.37-0.01,0.6-0.23,0.6-0.42
		c0-1.77-0.01-2.47,0.03-3.75c-0.01-0.97,0.05-1.21-0.01-1.37c0-0.67-0.16-0.8-0.63-0.82c-1.11-0.06-1.97-0.13-1.97,0.55
		c-0.05,0.31,0.02,2.24-0.06,3.03c-0.84-0.02-2.51,0.01-2.75-0.05c-0.05-1.69,0.04-2.08-0.06-2.37c-0.03-0.08-0.04-0.24-0.27-0.27
		c-0.65-0.09-1.36-0.03-1.92-0.02c-0.14,0-0.28,0.04-0.35,0.17c-0.05,0.1-0.07,0.22-0.07,0.34c-0.04,1.24,0.01,1.85-0.04,2.25
		c-0.75-0.02-2.28,0.06-2.7,0.02c-0.05-2.3-0.06-2.59-0.1-3.1c-0.02-0.24-0.14-0.41-0.39-0.46c-0.38-0.07-0.75-0.01-1.13-0.01
		c-0.88-0.01-0.89,0.1-0.9,0.93C91.16,168.39,91.08,168.03,91.89,168.16z"/>
	<path class="st0" d="M95.81,153.97c1.29-0.57,2-1.45,3.36-2.78c0.71-0.7,1.18-1.28,2.15-0.91c0.73,0.28,0.79,1.39,0.33,1.79
		c-0.27,0.24-0.44,0.33-0.75,0.46c-0.25,0.1-0.31,0.3-0.29,0.44c0.07,0.49,0.29,1,0.45,1.57c0.04,0.15,0.21,0.41,0.63,0.36
		c0.66-0.07,1.12-0.29,1.66-0.65c2.16-1.6,1.78-5.54-1.07-6.57c-1.4-0.51-2.59-0.24-3.6,0.39c-1.35,0.85-2.3,2.26-3.11,2.96
		c-0.91,0.8-1.81,0.46-1.89-0.15c-0.04-0.32,0.03-0.84,0.64-1.41c0.27-0.24,0.09-0.66-0.11-1.03c-0.2-0.38-0.31-0.53-0.46-0.72
		c-0.12-0.15-0.55-0.25-0.84-0.07c-0.91,0.57-1.9,1.53-1.99,2.93c-0.03,0.47,0,1.4,0.53,2.19C92.43,154.2,94.53,154.53,95.81,153.97
		z"/>
	<path class="st0" d="M97.36,146.2c3.06,0.1,6.01-0.42,6.99-2.39c0.64-1.43,0.65-3.07-0.45-4.57c-2.34-2.35-6.42-1.98-8.14-1.92
		c-1.49,0.11-4.92,0.96-4.86,4.46C90.95,144.93,93.65,145.97,97.36,146.2z M96.12,140.1c0.91-0.12,3.16-0.03,4.03,0.15
		c0.3,0.09,0.6,0.19,0.9,0.3c1.32,0.51,1.41,1.88,0.22,2.41c-0.57,0.25-2.18,0.47-3.46,0.42c-2.43-0.09-4.15-0.56-4.26-1.56
		C93.45,140.88,94.2,140.35,96.12,140.1z"/>
	<path class="st0" d="M92.14,135.47c2.23-0.03,3.05,0.05,4.76,0.04c2.64,0,4.64,0.22,6.42-1.28c1.89-1.63,1.34-4.84-0.48-6.02
		c-0.89-0.52-1.66-0.71-2.75-0.82c-1.78-0.16-2.44-0.14-4.92-0.19c-1.68-0.05-1.87-0.01-3.44-0.08c-0.23-0.01-0.47,0.13-0.49,0.36
		c-0.02,0.2-0.08,0.5-0.07,1.73c-0.01,0.4,0.1,0.7,0.49,0.79c0.24,0.05,0.71,0.03,1.09,0.06c3.58,0.02,4.13,0.07,6.46,0.1
		c2.23,0.02,2.68,0.64,2.7,1.17c0.01,0.24-0.08,0.64-0.26,0.81c-0.49,0.44-0.99,0.41-1.62,0.45c-1.57,0.11-6.44,0.04-8.39-0.05
		c-0.32-0.02-0.46,0.21-0.48,0.52c-0.07,0.77-0.07,0.99,0.01,1.84C91.21,135.31,91.46,135.48,92.14,135.47z"/>
	<path class="st0" d="M91.79,124.89c1.31,0.11,2.7,0.09,4.59,0.08c1.4-0.01,5.54,0.01,7.39-0.04c0.37-0.01,0.6-0.23,0.6-0.42
		c0-1.77-0.02-2.78-0.02-3.71c-0.01-0.97,0.04-1.21-0.01-1.37c0-0.67-0.11-0.84-0.58-0.87c-1.11-0.06-1.97-0.13-1.97,0.55
		c-0.05,0.31,0.02,2.24-0.06,3.03c-0.84-0.02-9.28-0.14-9.67-0.14c-0.88-0.01-0.98,0.1-0.98,0.93
		C91.1,124.46,90.98,124.77,91.79,124.89z"/>
	<path class="st0" d="M145.21,168.96c0.37-4.87-0.03-11.18-1.12-17.76c-1.09-6.58-2.75-12.68-4.67-17.18
		c-2.18-5.11-4.43-7.51-6.69-7.14c-2.25,0.37-3.61,3.37-4.02,8.92c-0.37,4.87,0.03,11.18,1.12,17.76
		c1.98,11.91,6.19,24.35,10.91,24.35c0.15,0,0.29-0.01,0.44-0.04C143.44,177.5,144.79,174.5,145.21,168.96z M140.79,175.49
		c-1.61,0.29-6.09-7.37-8.57-22.33c-1.06-6.4-1.45-12.5-1.1-17.19c0.4-5.3,1.58-6.64,2.01-6.71c0.01,0,0.03,0,0.05,0
		c0.48,0,2,0.99,4.02,5.71c1.85,4.32,3.45,10.22,4.51,16.62c1.06,6.4,1.45,12.5,1.1,17.19C142.4,174.07,141.21,175.42,140.79,175.49
		z"/>
	<path class="st0" d="M29.57,156.88c0,0-0.01,0-0.01,0c-4.22,0.03-5.27,12.26-5.23,19.48c0.03,4.96,0.5,9.63,1.32,13.16
		c0.98,4.21,2.33,6.26,4.13,6.26c0,0,0.01,0,0.01,0c4.22-0.03,5.27-12.26,5.23-19.48C34.98,169.08,33.79,156.88,29.57,156.88z
		 M29.78,193.33c-1.09-0.69-2.97-6.74-3.03-16.99c-0.06-10.24,1.74-16.32,2.83-17.02c1.09,0.69,2.97,6.74,3.03,16.99
		C32.67,186.56,30.87,192.63,29.78,193.33z"/>
</g>
</svg>
